# xmcd CD database file
#
# Track frame offsets:
#	150
#	34744
#	71998
#	107587
#	137573
#	198114
#	221033
#	250566
#	287462
#
# Disc length: 4230 seconds
#
# Revision: 5
# Processed by: cddbd v1.5PL3 Copyright (c) Steve Scherf et al.
# Submitted via: CDex 1.51
#
DISCID=7f108409
DTITLE=Adagio - Underworld
DYEAR=1900
DGENRE=
TTITLE0=next profundis
TTITLE1=Introitus/Solvet Saeclum In Fadilla
TTITLE2=Chosen
TTITLE3=From My Sleep To Someone Else
TTITLE4=Underworld
TTITLE5=Promises
TTITLE6=Mirror Stage
TTITLE7=Niflhelm
TTITLE8=Missa Aeterna (Bonus Track)
EXTD=
EXTT0=
EXTT1=
EXTT2=
EXTT3=
EXTT4=
EXTT5=
EXTT6=
EXTT7=
EXTT8=
PLAYORDER=
